<?xml version="1.0" encoding="UTF-8" standalone="no"?><svg xmlns="http://www.w3.org/2000/svg" xmlns:xlink="http://www.w3.org/1999/xlink" contentScriptType="text/ecmascript" fill="#000000" width="259" zoomAndPan="magnify" contentStyleType="text/css" viewBox="0 0 259.036 356.775" height="357" preserveAspectRatio="xMidYMid meet" version="1"><g><path d="M3753 5505 c-35 -25 -48 -102 -48 -297 0 -152 2 -180 17 -194 30 -30 64 -11 98 56 83 165 197 211 566 227 114 5 126 3 220 -26 54 -17 116 -42 137 -56 47 -33 94 -96 107 -147 44 -162 79 -422 66 -490 -10 -56 -24 -61 -140 -59 -82 1 -106 -1 -116 -14 -22 -26 -4 -42 80 -70 117 -39 170 -91 170 -168 0 -41 -14 -54 -104 -98 -179 -86 -275 -259 -276 -491 0 -94 16 -152 79 -275 37 -74 124 -152 217 -194 53 -23 64 -33 74 -64 18 -53 5 -122 -29 -156 -27 -27 -113 -59 -157 -59 -44 0 -76 -18 -72 -42 4 -29 31 -36 140 -37 64 -1 91 -5 102 -17 36 -36 7 -544 -36 -647 -26 -60 -64 -93 -133 -112 -67 -20 -107 -50 -103 -78 6 -45 31 -48 388 -45 302 3 339 5 363 21 15 9 27 26 27 37 0 25 -28 42 -115 70 -38 12 -81 33 -94 45 -14 14 -34 57 -49 106 -24 78 -26 101 -30 332 -5 315 -10 302 124 294 99 -6 158 4 167 27 10 24 -25 44 -98 56 -142 24 -195 71 -195 172 0 67 8 75 115 112 65 23 89 27 135 22 110 -13 105 -14 103 19 -1 17 -6 64 -10 105 -7 67 -10 75 -30 78 -16 2 -38 -11 -72 -43 -73 -69 -195 -107 -229 -73 -9 9 -12 105 -12 369 0 413 -4 396 84 384 30 -3 81 -23 124 -46 41 -21 80 -39 88 -39 17 0 29 27 43 97 13 66 6 87 -25 79 -13 -3 -35 -9 -48 -12 -31 -8 -225 61 -249 89 -44 49 54 152 164 172 46 9 99 40 99 60 0 26 -36 35 -137 35 -147 0 -143 -6 -143 190 0 126 4 176 21 246 26 110 45 147 106 206 86 84 188 122 394 147 157 20 263 9 393 -40 82 -30 120 -67 151 -148 32 -85 55 -109 90 -93 13 6 28 24 32 39 14 48 9 344 -5 385 -23 65 -72 84 -133 52 -93 -48 -259 -59 -1119 -73 -327 -5 -613 -13 -636 -16 -22 -3 -72 -1 -110 4 -38 5 -125 15 -194 21 -103 10 -139 18 -205 46 -91 38 -102 40 -132 19z m1158 -1492 c11 -13 13 -74 11 -321 -1 -204 -6 -310 -13 -319 -19 -23 -50 -14 -86 23 -152 162 -143 491 17 609 40 29 53 31 71 8z" transform="translate(-370.500000,551.920468) scale(0.100000,-0.100000)"/></g></svg>